<svg xmlns="http://www.w3.org/2000/svg" width="64" height="64" viewBox="0 0 64 64">
  <!-- Colloid-style Google Tasks. Upstream Colloid ships no google-tasks icon.
       Direct inversion of the Google mark: on Colloid's blue tile the ring and
       check are white, so the check's long arm still reads where it breaks out
       of the circle (in the original that arm is a darker blue overlap). -->
  <rect width="56.002" height="56.002" x="4" y="3.969" fill="#2a88f8" rx="13.002" ry="13.002"/>
  <circle cx="32" cy="32" r="14.6" fill="none" stroke="#fff" stroke-width="5.6"/>
  <path fill="none" stroke="#fff" stroke-width="5.6" stroke-linecap="round" stroke-linejoin="round" d="M24 32.5l6 6L45 19"/>
  <!-- Colloid tile shading -->
  <path fill="#fff" opacity=".15" d="M3.998 18.004v-1C3.998 9.801 9.798 4 17.002 4h29.996c7.203 0 13.004 5.8 13.004 13.004v1c0-7.203-5.8-13.002-13.004-13.002H17.002A12.975 12.975 0 0 0 3.998 18.004"/>
  <path fill="#000" opacity=".15" d="M3.998 45.998v1c0 7.203 5.8 13.004 13.004 13.004h29.996c7.203 0 13.004-5.8 13.004-13.004v-1c0 7.203-5.8 13.002-13.004 13.002H17.002A12.975 12.975 0 0 1 3.998 45.998"/>
</svg>
